# xmcd
#
# Track frame offsets: 
#        150
#        75617
#        149038
#        165672
#        188845
#        205582
#        254997
#
# Disc length: 3592 seconds
#
# Revision: 0
# Processed by: cddbd v1.5.1PL0 Copyright (c) Steve Scherf et al.
# Submitted via: ExactAudioCopy v0.95b3
#
DISCID=650e0607
DTITLE=Jimi Hendrix - Are You Experienced The Sessions ? Vol.2
DYEAR=1967
DGENRE=Rock
TTITLE0=Remember 1-6 (February 8 1967)
TTITLE1=I Don't Live Today 1-4 (February 20 1967)
TTITLE2=Manic Depression (February 23 1967)
TTITLE3=Manic Depression (February 23 1967)
TTITLE4=No No No No (March 29 1967)
TTITLE5=Red House 1-4 (March 29 1967)
TTITLE6=Waterfall (April 3 1967)
EXTD=Shout to the Top STTP 039
EXTT0=
EXTT1=
EXTT2=
EXTT3=
EXTT4=
EXTT5=
EXTT6=
PLAYORDER=
